<svg xmlns="http://www.w3.org/2000/svg" width="220pt" height="169pt" viewBox="0 0 220 169" version="1.1"><path fill="#ffffff" d="M0 0L220 0 220 169 0 169 0 0Z"/><path fill="#00a9e6" d="M88.77 19.82C97.1 22.91 104.31 28.61 109.54 35.76 109.47 54.06 109.48 72.37 109.54 90.67 104.64 83.19 97.24 77.51 88.77 74.65 88.74 56.37 88.73 38.1 88.77 19.82Z"/><path fill="#00a9e6" d="M110.47 35.73C115.74 28.54 123.08 22.89 131.48 19.86 131.53 38.13 131.49 56.41 131.5 74.68 122.96 77.49 115.4 83.13 110.46 90.68 110.52 72.36 110.52 54.05 110.47 35.73Z"/><path fill="#1177a7" d="M72.5 22.15C76.09 25.14 79.65 28.15 83.24 31.14 83.26 47.34 83.25 63.54 83.25 79.74 92.6 82.2 102.33 85.44 109.22 92.59 97.15 88.64 85.05 84.56 72.49 82.48 72.51 62.37 72.49 42.26 72.5 22.15Z"/><path fill="#1177a7" d="M136.76 31.14C140.34 28.15 143.91 25.14 147.5 22.15 147.51 42.26 147.49 62.37 147.51 82.48 134.95 84.56 122.85 88.64 110.79 92.59 117.67 85.44 127.4 82.2 136.75 79.74 136.75 63.54 136.74 47.34 136.76 31.14Z"/><path fill="#0b4e6d" d="M59.13 28.35C61.86 32.06 65.24 35.35 67.53 39.34 67.76 54.53 67.56 69.74 67.62 84.93 81.47 85.99 95.08 89.54 107.84 94.98 91.81 91.57 75.56 88.76 59.12 88.72 59.13 68.6 59.12 48.47 59.13 28.35Z"/><path fill="#0b4e6d" d="M152.61 39.6C155.26 35.78 158.14 32.1 160.87 28.33 160.89 48.46 160.87 68.59 160.88 88.72 144.44 88.76 128.18 91.56 112.15 94.98 124.8 89.59 138.27 86.01 152 84.95 151.99 71.29 152.04 57.63 151.97 43.98 152.12 42.53 151.65 40.84 152.61 39.6Z"/><path fill="#0b4e6d" d="M25.43 106.09C29.14 105.97 32.86 105.99 36.57 106 36.58 106.9 36.61 108.7 36.62 109.6 36.28 109 35.61 107.81 35.27 107.21 33.85 107.16 32.43 107.12 31.01 107.08 31.02 109.4 31.03 111.71 31.05 114.02 32.94 113.91 34.82 113.77 36.69 113.53 36.65 114.79 36.62 116.06 36.61 117.33 36.16 116.58 35.71 115.83 35.26 115.08 33.85 115.05 32.44 115.02 31.03 114.99 31.03 117.47 31.04 119.94 31.08 122.42 33.7 123.09 36.72 123.03 37.85 120.1 37.56 121.39 37.3 122.69 37.04 123.99 33.31 124.06 29.58 123.99 25.85 123.82 26.32 123.53 27.26 122.94 27.73 122.64 28.29 117.41 27.89 112.11 27.96 106.86 27.33 106.67 26.06 106.28 25.43 106.09Z"/><path fill="#0b4e6d" d="M41 112.02C41.6 108.29 46.06 108.24 48.98 108.75 49 109.63 49.06 111.4 49.08 112.29 48.23 109.75 44.51 108.32 43.04 111.1 42.69 113.65 45.86 114.27 47.35 115.7 49.98 117.11 50.25 121.2 47.82 122.95 45.77 124.63 42.97 123.87 40.59 123.58 40.48 122.16 40.37 120.74 40.24 119.33 40.82 122.47 45.52 124.65 47.03 121.01 47.15 116.83 40.15 116.65 41 112.02Z"/><path fill="#0b4e6d" d="M51.77 108.7C55.94 108.99 60.22 109.41 64.35 108.51 65.46 108.13 66.46 108.92 67.46 109.26 69.34 109.09 71.22 108.98 73.1 108.83 70.31 111.39 71.84 115.65 71.65 119 71.31 122.98 77.35 124.46 79.02 120.95 79.79 117.43 79.59 113.73 79.32 110.15 78.8 109.84 77.76 109.21 77.23 108.89 79.25 108.98 81.27 109.03 83.28 109.07 82.84 109.38 81.94 110 81.49 110.3 81.43 113.82 81.91 117.46 80.9 120.88 78.54 125.59 69.47 125.14 68.69 119.49 68.28 116.44 68.52 113.34 68.54 110.27 67.35 109.97 66.16 109.66 64.97 109.36L65.4 111.52C64.93 111.07 64.46 110.63 63.99 110.18 62.68 110.12 61.36 110.07 60.05 110.02 60.02 114.31 59.99 118.6 60.15 122.88 60.81 123.12 62.12 123.59 62.78 123.82 60.17 123.96 57.55 123.94 54.94 123.89 55.4 123.61 56.3 123.04 56.75 122.76 57.27 118.52 56.9 114.23 56.98 109.98 54.9 110.05 52.71 109.93 50.93 111.2 51.14 110.57 51.56 109.33 51.77 108.7Z"/><path fill="#0b4e6d" d="M84.71 109.14C89.18 109.22 93.9 108.26 98.2 109.85 103.21 112.07 103.22 119.99 98.59 122.61 94.43 124.96 89.44 123.71 84.91 123.92 85.37 123.65 86.28 123.11 86.74 122.84 87.2 118.59 87.05 114.28 86.87 110.02 86.33 109.8 85.25 109.36 84.71 109.14Z"/><path fill="#0b4e6d" d="M104.79 108.92C106.95 109.01 109.11 109.01 111.27 108.91 110.91 109.24 110.17 109.91 109.8 110.24 109.21 114.59 109.65 119.02 109.64 123.41 110.43 123.34 112.01 123.21 112.8 123.14 115.42 118.3 117 112.96 119.68 108.14 122.08 112.96 123.74 118.13 126.29 122.88 126.73 122.96 127.61 123.12 128.05 123.2 128.39 122.97 129.08 122.51 129.43 122.29 130.15 117.53 130.68 112.73 131.78 108.03 134.03 111.98 135.9 116.12 137.97 120.16 140.18 116.34 141.36 111.87 144.34 108.54 145.2 112.97 145.63 117.48 146.47 121.91 146.48 123.37 148.29 123.39 149.24 123.93 147.43 123.92 145.62 123.97 143.81 124.03 143.53 120.65 143.08 117.29 142.63 113.93 140.86 117.4 139.25 120.95 137.28 124.32 135.4 121.02 133.74 117.61 132.1 114.19 131.82 117.46 130.63 120.79 131.54 124.05 128.8 123.89 126.06 123.94 123.33 124.01 122.79 122.34 122.22 120.68 121.64 119.02 119.87 119.01 118.1 119.01 116.34 119.02 115.77 120.64 114.81 122.31 115.61 124.05 112.02 123.93 108.43 123.96 104.84 124.1 105.19 123.74 105.88 123.03 106.22 122.67 106.75 118.67 106.5 114.57 106.42 110.53 106.01 110.13 105.2 109.32 104.79 108.92Z"/><path fill="#0b4e6d" d="M150.4 108.9C153.87 109.05 157.35 108.99 160.83 109 160.81 109.75 160.76 111.27 160.74 112.02 160.39 111.56 159.7 110.63 159.35 110.17 158.4 110.17 156.5 110.16 155.54 110.16 155.54 111.93 155.55 113.7 155.56 115.48 157.23 115.4 158.9 115.3 160.58 115.2 160.49 115.88 160.32 117.26 160.23 117.94 159.94 117.61 159.36 116.95 159.07 116.61 158.18 116.58 156.4 116.52 155.51 116.49 155.79 118.5 154.94 120.93 156.18 122.68 158.19 123.24 160.4 122.85 161.62 120.97 161.41 121.7 160.99 123.16 160.77 123.89 157.54 124.16 154.3 123.96 151.06 123.97 151.42 123.6 152.12 122.84 152.47 122.46 152.39 118.33 152.7 114.18 152.34 110.06 151.86 109.77 150.89 109.19 150.4 108.9Z"/><path fill="#0b4e6d" d="M169.44 108.89C171.9 109.02 174.36 109.02 176.83 108.91 175.21 109.3 174.46 110.27 174.58 111.82 174.42 115.48 174.48 119.16 174.84 122.81 176.38 122.84 177.92 122.85 179.47 122.85 179.8 122.32 180.47 121.24 180.81 120.71L180.75 123.84C183.76 118.91 185.44 113.33 188.01 108.17 190.67 112.74 192.07 117.89 194.61 122.51 195.23 122.85 196.47 123.54 197.09 123.88 195.33 123.9 193.57 123.98 191.81 124.04 191.27 122.35 190.69 120.67 190.11 119 188.36 119 186.61 119 184.86 118.99 184.29 120.62 183.77 122.27 183.63 124 179.12 123.99 174.62 124.03 170.11 123.96 170.45 123.59 171.13 122.85 171.47 122.48 171.43 118.48 171.62 114.47 171.42 110.48 170.93 110.08 169.94 109.29 169.44 108.89Z"/><path fill="#ffffff" d="M90.1 109.9C92.05 110.12 94.15 110.02 95.91 111.05 99.33 112.84 99.78 117.78 97.9 120.83 96.09 123.27 92.68 123.13 90.05 122.41 90.03 118.24 90 114.07 90.1 109.9Z"/><path fill="#ffffff" d="M117.03 117.87C117.75 116.12 118.47 114.37 119.21 112.63 119.9 114.37 120.57 116.12 121.25 117.88 119.84 117.88 118.43 117.88 117.03 117.87Z"/><path fill="#ffffff" d="M187.66 112.54C188.37 114.31 189.07 116.1 189.76 117.88 188.36 117.88 186.96 117.88 185.57 117.88 186.26 116.09 186.96 114.31 187.66 112.54Z"/><path fill="#0b4e6d" d="M164.5 121.46C165.66 119.78 168.24 122.34 166.56 123.53 165.39 125.24 162.7 122.52 164.5 121.46Z"/></svg>