<svg width="220" height="169" xmlns="http://www.w3.org/2000/svg">
 <g>
  <title>Layer 1</title>
  <path id="svg_1" d="m0,0l220,0l0,169l-220,0l0,-169z" fill="#ffffff"/>
  <path id="svg_2" d="m88.769997,19.82c8.330002,3.09 15.540001,8.790001 20.770004,15.939999c-0.07,18.300003 -0.059998,36.610004 0,54.91c-4.900002,-7.479996 -12.300003,-13.159996 -20.770004,-16.019997c-0.029999,-18.280003 -0.039993,-36.550003 0,-54.830002z" fill="#00a9e6"/>
  <path id="svg_3" d="m110.470001,35.73c5.269997,-7.189999 12.610001,-12.84 21.009995,-15.869999c0.050003,18.27 0.01001,36.549999 0.020004,54.82c-8.540001,2.809998 -16.099998,8.449997 -21.040001,16c0.059998,-18.32 0.059998,-36.630001 0.010002,-54.950001z" fill="#00a9e6"/>
  <path id="svg_4" d="m72.5,22.15c3.589996,2.99 7.150002,6 10.739998,8.99c0.020004,16.200001 0.010002,32.400002 0.010002,48.599998c9.349998,2.459999 19.080002,5.700005 25.970001,12.849998c-12.07,-3.949997 -24.169998,-8.029999 -36.730003,-10.109993c0.020004,-20.110004 0,-40.220005 0.010002,-60.330004z" fill="#1177a7"/>
  <path id="svg_5" d="m136.759995,31.139999c3.580002,-2.99 7.150009,-6 10.740005,-8.99c0.009995,20.109999 -0.009995,40.219999 0.009995,60.330004c-12.559998,2.079994 -24.659996,6.159996 -36.719994,10.109993c6.879997,-7.149994 16.610001,-10.389999 25.959999,-12.849998c0,-16.199997 -0.009995,-32.399998 0.009995,-48.599998z" fill="#1177a7"/>
  <path id="svg_6" d="m59.130001,28.35c2.73,3.710001 6.109997,6.999998 8.399998,10.99c0.230003,15.189999 0.029999,30.399998 0.090004,45.59c13.849998,1.059998 27.459999,4.610001 40.219994,10.050003c-16.029999,-3.410004 -32.279999,-6.220001 -48.719997,-6.260002c0.010002,-20.120003 0,-40.25 0.010002,-60.370001z" fill="#0b4e6d"/>
  <path id="svg_7" d="m152.610001,39.599998c2.649994,-3.82 5.529999,-7.5 8.259995,-11.269999c0.020004,20.129999 0,40.259996 0.01001,60.390001c-16.440002,0.040001 -32.700012,2.839996 -48.730003,6.260002c12.650002,-5.390007 26.120003,-8.970001 39.849998,-10.030006c-0.009995,-13.659996 0.039993,-27.319996 -0.029999,-40.969997c0.149994,-1.450001 -0.320007,-3.139999 0.639999,-4.380001z" fill="#0b4e6d"/>
  <path id="svg_8" d="m25.43,106.089996c3.709999,-0.119995 7.43,-0.099998 11.139999,-0.089996c0.010002,0.900002 0.040001,2.699997 0.049999,3.599998c-0.34,-0.599998 -1.009998,-1.790001 -1.349998,-2.389999c-1.420002,-0.049995 -2.84,-0.089996 -4.26,-0.129997c0.01,2.32 0.02,4.629997 0.039999,6.939995c1.889999,-0.109993 3.77,-0.25 5.639999,-0.489998c-0.039997,1.260002 -0.07,2.529999 -0.079998,3.800003c-0.450001,-0.75 -0.900002,-1.5 -1.350002,-2.25c-1.41,-0.029999 -2.82,-0.060005 -4.229998,-0.090004c0,2.480003 0.01,4.950005 0.049999,7.43c2.620001,0.669998 5.640001,0.610001 6.769999,-2.32c-0.289997,1.290001 -0.549999,2.590004 -0.809998,3.889999c-3.73,0.07 -7.460001,0 -11.190001,-0.169998c0.469999,-0.290001 1.41,-0.879997 1.879999,-1.18c0.560001,-5.229996 0.16,-10.529999 0.23,-15.779999c-0.629999,-0.190002 -1.9,-0.580002 -2.529999,-0.770004z" fill="#0b4e6d"/>
  <path id="svg_9" d="m41,112.019997c0.599998,-3.729996 5.060001,-3.779999 7.98,-3.269997c0.02,0.879997 0.080002,2.650002 0.100002,3.540001c-0.850002,-2.540001 -4.570004,-3.970001 -6.040001,-1.190002c-0.350002,2.550003 2.82,3.169998 4.309998,4.599998c2.630001,1.410004 2.900002,5.5 0.470001,7.25c-2.049999,1.68 -4.849998,0.920006 -7.23,0.630005c-0.110001,-1.419998 -0.220001,-2.840004 -0.349998,-4.25c0.579998,3.139999 5.279999,5.32 6.789997,1.68c0.120003,-4.18 -6.879997,-4.360001 -6.029999,-8.990005z" fill="#0b4e6d"/>
  <path id="svg_10" d="m51.77,108.699997c4.169998,0.290001 8.450001,0.710007 12.579998,-0.189995c1.110001,-0.380005 2.110001,0.409996 3.110001,0.75c1.879997,-0.170006 3.760002,-0.279999 5.639999,-0.43c-2.790001,2.559998 -1.260002,6.82 -1.449997,10.169998c-0.340004,3.980003 5.699997,5.459999 7.369995,1.949997c0.770004,-3.519997 0.57,-7.219994 0.300003,-10.799995c-0.519997,-0.310005 -1.559998,-0.940002 -2.089996,-1.260002c2.019997,0.090004 4.039993,0.139999 6.049995,0.18c-0.440002,0.309998 -1.339996,0.93 -1.790001,1.230003c-0.059998,3.519997 0.420006,7.159996 -0.589996,10.579994c-2.360001,4.709999 -11.43,4.260002 -12.209999,-1.389999c-0.410004,-3.049995 -0.170006,-6.150002 -0.150002,-9.220001c-1.190002,-0.299995 -2.379997,-0.609993 -3.57,-0.909996l0.43,2.159996c-0.470001,-0.449997 -0.940002,-0.889999 -1.41,-1.339996c-1.310001,-0.059998 -2.630001,-0.110001 -3.940002,-0.160004c-0.029999,4.290001 -0.059998,8.580002 0.100002,12.860001c0.66,0.240005 1.969997,0.709999 2.629997,0.940002c-2.610001,0.139999 -5.23,0.120003 -7.84,0.07c0.460003,-0.279999 1.360001,-0.849998 1.810001,-1.129997c0.52,-4.240005 0.150002,-8.529999 0.23,-12.779999c-2.079998,0.07 -4.27,-0.050003 -6.049999,1.219994c0.209999,-0.629997 0.630001,-1.869995 0.84,-2.5z" fill="#0b4e6d"/>
  <path id="svg_11" d="m84.709999,109.139999c4.470001,0.080002 9.190002,-0.879997 13.489998,0.709999c5.010002,2.220001 5.020004,10.139999 0.389999,12.760002c-4.159996,2.349998 -9.149994,1.099998 -13.679993,1.309998c0.459999,-0.269997 1.369995,-0.809998 1.829994,-1.080002c0.459999,-4.25 0.310005,-8.559998 0.130005,-12.82c-0.540001,-0.219994 -1.620003,-0.659996 -2.160004,-0.879997z" fill="#0b4e6d"/>
  <path id="svg_12" d="m104.790001,108.919998c2.159996,0.090004 4.32,0.090004 6.479996,-0.009995c-0.359993,0.329994 -1.099998,1 -1.469994,1.329994c-0.590004,4.349998 -0.150002,8.779999 -0.160004,13.170006c0.790001,-0.070007 2.370003,-0.200005 3.160004,-0.270004c2.619995,-4.839996 4.199997,-10.18 6.879997,-15c2.400002,4.82 4.059998,9.989998 6.610001,14.739998c0.440002,0.080002 1.32,0.240005 1.760002,0.32c0.339996,-0.229996 1.029999,-0.689995 1.37999,-0.909996c0.720001,-4.760002 1.25,-9.559998 2.350006,-14.260002c2.25,3.950005 4.119995,8.090004 6.190002,12.130005c2.209991,-3.820007 3.389999,-8.290001 6.369995,-11.620003c0.860001,4.43 1.290009,8.940002 2.130005,13.370003c0.009995,1.459999 1.819992,1.479996 2.770004,2.019997c-1.810013,-0.010002 -3.62001,0.040001 -5.430008,0.099998c-0.279999,-3.379997 -0.729996,-6.739998 -1.179993,-10.099998c-1.770004,3.470001 -3.380005,7.019997 -5.350006,10.389999c-1.880005,-3.300003 -3.539993,-6.709999 -5.179993,-10.129997c-0.279999,3.269997 -1.470001,6.599998 -0.560013,9.860001c-2.73999,-0.160004 -5.479996,-0.110001 -8.209991,-0.040001c-0.540001,-1.670006 -1.110001,-3.330002 -1.690002,-4.990005c-1.769997,-0.009995 -3.540001,-0.009995 -5.300003,0c-0.57,1.620003 -1.529999,3.290001 -0.729996,5.030006c-3.590004,-0.120003 -7.18,-0.090004 -10.770004,0.049995c0.350006,-0.360001 1.040001,-1.07 1.380005,-1.43c0.529999,-4 0.279999,-8.099998 0.199997,-12.139999c-0.409996,-0.400002 -1.220001,-1.209999 -1.629997,-1.610001z" fill="#0b4e6d"/>
  <path id="svg_13" d="m150.399994,108.900002c3.470001,0.150002 6.950012,0.089996 10.430008,0.099998c-0.020004,0.75 -0.070007,2.269997 -0.089996,3.019997c-0.350006,-0.459999 -1.040009,-1.389999 -1.389999,-1.849998c-0.950012,0 -2.850006,-0.009995 -3.810013,-0.009995c0,1.769997 0.01001,3.539993 0.020004,5.32c1.669998,-0.080002 3.339996,-0.18 5.020004,-0.280006c-0.089996,0.68 -0.259995,2.060005 -0.350006,2.740005c-0.289993,-0.330002 -0.869995,-0.990005 -1.159988,-1.330002c-0.890015,-0.029999 -2.670013,-0.090004 -3.560013,-0.120003c0.279999,2.010002 -0.569992,4.440002 0.669998,6.190002c2.01001,0.559998 4.220001,0.169998 5.440002,-1.709999c-0.209991,0.729996 -0.62999,2.190002 -0.849991,2.919998c-3.230011,0.270004 -6.470001,0.07 -9.710007,0.080002c0.360001,-0.370003 1.059998,-1.130005 1.410004,-1.510002c-0.080002,-4.129997 0.229996,-8.279999 -0.130005,-12.400002c-0.479996,-0.290001 -1.449997,-0.869995 -1.940002,-1.159996z" fill="#0b4e6d"/>
  <path id="svg_14" d="m169.440002,108.889999c2.459991,0.129997 4.919998,0.129997 7.389999,0.020004c-1.619995,0.389999 -2.369995,1.359993 -2.25,2.909996c-0.160004,3.660004 -0.100006,7.340004 0.259995,10.989998c1.540009,0.029999 3.080002,0.040001 4.630005,0.040001c0.330002,-0.529999 1,-1.610001 1.339996,-2.139999l-0.059998,3.129997c3.009995,-4.929993 4.690002,-10.509995 7.259995,-15.669998c2.660004,4.57 4.060013,9.720001 6.600006,14.340004c0.619995,0.339996 1.860001,1.029999 2.479996,1.369995c-1.759995,0.020004 -3.519989,0.100006 -5.279999,0.160004c-0.539993,-1.690002 -1.119995,-3.370003 -1.699997,-5.040001c-1.75,0 -3.5,0 -5.25,-0.010002c-0.570007,1.630005 -1.089996,3.279999 -1.229996,5.010002c-4.51001,-0.010002 -9.01001,0.029999 -13.520004,-0.040001c0.339996,-0.370003 1.020004,-1.110001 1.360001,-1.479996c-0.040009,-4 0.149994,-8.010002 -0.050003,-12c-0.490005,-0.400002 -1.479996,-1.190002 -1.979996,-1.590004z" fill="#0b4e6d"/>
  <path id="svg_15" d="m90.099998,109.900002c1.950005,0.220001 4.050003,0.119995 5.810005,1.150002c3.419998,1.789993 3.869995,6.729996 1.989998,9.779999c-1.810005,2.439995 -5.220001,2.299995 -7.849998,1.580002c-0.020004,-4.170006 -0.050003,-8.340004 0.049995,-12.510002z" fill="#ffffff"/>
  <path id="svg_16" d="m117.029999,117.870003c0.720001,-1.75 1.440002,-3.5 2.18,-5.240005c0.690002,1.740005 1.360001,3.490005 2.040001,5.25c-1.410004,0 -2.82,0 -4.220001,-0.009995z" fill="#ffffff"/>
  <path id="svg_17" d="m187.660004,112.540001c0.709991,1.769997 1.410004,3.559998 2.099991,5.339996c-1.399994,0 -2.799988,0 -4.189987,0c0.689987,-1.790001 1.389999,-3.57 2.089996,-5.339996z" fill="#ffffff"/>
  <path id="svg_18" d="m164.5,121.459999c1.160004,-1.68 3.740005,0.879997 2.059998,2.07c-1.169998,1.709999 -3.860001,-1.010002 -2.059998,-2.07z" fill="#0b4e6d"/>
 </g>
</svg>