<?xml version="1.0" encoding="UTF-8" standalone="no"?>
<!-- Generator: Adobe Illustrator 16.0.0, SVG Export Plug-In . SVG Version: 6.00 Build 0)  -->

<svg
   xmlns:dc="http://purl.org/dc/elements/1.1/"
   xmlns:cc="http://creativecommons.org/ns#"
   xmlns:rdf="http://www.w3.org/1999/02/22-rdf-syntax-ns#"
   xmlns:svg="http://www.w3.org/2000/svg"
   xmlns="http://www.w3.org/2000/svg"
   xmlns:sodipodi="http://sodipodi.sourceforge.net/DTD/sodipodi-0.dtd"
   xmlns:inkscape="http://www.inkscape.org/namespaces/inkscape"
   version="1.1"
   id="Capa_1"
   x="0px"
   y="0px"
   width="512px"
   height="512px"
   viewBox="0 0 512 512"
   style="enable-background:new 0 0 512 512;"
   xml:space="preserve"
   inkscape:version="0.48.4 r9939"
   sodipodi:docname="coin.svg"><metadata
     id="metadata4110"><rdf:RDF><cc:Work
         rdf:about=""><dc:format>image/svg+xml</dc:format><dc:type
           rdf:resource="http://purl.org/dc/dcmitype/StillImage" /><dc:title></dc:title></cc:Work></rdf:RDF></metadata><defs
     id="defs4108" /><sodipodi:namedview
     pagecolor="#ffffff"
     bordercolor="#666666"
     borderopacity="1"
     objecttolerance="10"
     gridtolerance="10"
     guidetolerance="10"
     inkscape:pageopacity="0"
     inkscape:pageshadow="2"
     inkscape:window-width="1364"
     inkscape:window-height="658"
     id="namedview4106"
     showgrid="false"
     inkscape:zoom="0.4609375"
     inkscape:cx="256"
     inkscape:cy="256"
     inkscape:window-x="0"
     inkscape:window-y="24"
     inkscape:window-maximized="0"
     inkscape:current-layer="Capa_1" /><g
     id="g4072"
     style="fill:#ffffff"><path
       d="M256,0C114.625,0,0,114.625,0,256s114.625,256,256,256s256-114.625,256-256S397.375,0,256,0z M256,480   C132.5,480,32,379.5,32,256S132.5,32,256,32s224,100.5,224,224S379.5,480,256,480z M335.562,265.844   c6.095,10.313,9.156,22.344,9.156,36.125c0,21.156-6.312,38.781-18.906,52.875c-12.594,14.125-30.78,22.438-54.562,24.938V416   h-30.313v-36.031c-39.656-4.062-64.188-27.125-73.656-69.125l46.875-12.219c4.344,26.406,18.719,39.594,43.125,39.594   c11.406,0,19.844-2.812,25.219-8.469s8.062-12.469,8.062-20.469c0-8.281-2.688-14.563-8.062-18.813   c-5.375-4.28-17.344-9.688-35.875-16.25c-16.656-5.78-29.688-11.469-39.063-17.155c-9.375-5.625-17-13.531-22.844-23.688   c-5.844-10.188-8.781-22.063-8.781-35.563c0-17.719,5.25-33.688,15.688-47.875c10.438-14.156,26.875-22.813,49.313-25.969V96   h30.313v27.969c33.875,4.063,55.813,23.219,65.781,57.5l-41.75,17.125c-8.156-23.5-20.72-35.25-37.781-35.25   c-8.563,0-15.438,2.625-20.594,7.875c-5.188,5.25-7.781,11.625-7.781,19.094c0,7.625,2.5,13.469,7.5,17.563   c4.969,4.063,15.688,9.094,32.063,15.125c18,6.563,32.125,12.781,42.344,18.625C321.281,247.469,329.438,255.563,335.562,265.844z"
       id="path4074"
       style="fill:#ffffff" /></g><g
     id="g4076" /><g
     id="g4078" /><g
     id="g4080" /><g
     id="g4082" /><g
     id="g4084" /><g
     id="g4086" /><g
     id="g4088" /><g
     id="g4090" /><g
     id="g4092" /><g
     id="g4094" /><g
     id="g4096" /><g
     id="g4098" /><g
     id="g4100" /><g
     id="g4102" /><g
     id="g4104" /></svg>