<?xml version="1.0" encoding="UTF-8" standalone="no"?>
<!-- Created with Inkscape (http://www.inkscape.org/) -->

<svg
   xmlns:osb="http://www.openswatchbook.org/uri/2009/osb"
   xmlns:dc="http://purl.org/dc/elements/1.1/"
   xmlns:cc="http://creativecommons.org/ns#"
   xmlns:rdf="http://www.w3.org/1999/02/22-rdf-syntax-ns#"
   xmlns:svg="http://www.w3.org/2000/svg"
   xmlns="http://www.w3.org/2000/svg"
   xmlns:xlink="http://www.w3.org/1999/xlink"
   xmlns:sodipodi="http://sodipodi.sourceforge.net/DTD/sodipodi-0.dtd"
   xmlns:inkscape="http://www.inkscape.org/namespaces/inkscape"
   width="64px"
   height="64px"
   id="svg2985"
   version="1.1"
   inkscape:version="0.48.4 r9939"
   sodipodi:docname="github.svg">
  <defs
     id="defs2987">
    <linearGradient
       id="linearGradient5353">
      <stop
         style="stop-color:#000000;stop-opacity:0.15294118;"
         offset="0"
         id="stop5355" />
      <stop
         style="stop-color:#000000;stop-opacity:0;"
         offset="1"
         id="stop5357" />
    </linearGradient>
    <linearGradient
       id="linearGradient5347"
       osb:paint="solid">
      <stop
         style="stop-color:#673ab7;stop-opacity:1;"
         offset="0"
         id="stop5349" />
    </linearGradient>
    <linearGradient
       id="linearGradient3899">
      <stop
         style="stop-color:#000000;stop-opacity:0.14901961;"
         offset="0"
         id="stop3901" />
      <stop
         style="stop-color:#000000;stop-opacity:0;"
         offset="1"
         id="stop3903" />
    </linearGradient>
    <linearGradient
       inkscape:collect="always"
       xlink:href="#linearGradient3899"
       id="linearGradient5359"
       x1="19.136364"
       y1="39.727272"
       x2="64.136368"
       y2="39.727272"
       gradientUnits="userSpaceOnUse"
       gradientTransform="matrix(0.95041321,0,0,0.93723849,3.1555222,3.8569799)" />
  </defs>
  <sodipodi:namedview
     id="base"
     pagecolor="#ffffff"
     bordercolor="#666666"
     borderopacity="1.0"
     inkscape:pageopacity="0.0"
     inkscape:pageshadow="2"
     inkscape:zoom="3.8890873"
     inkscape:cx="-45.962483"
     inkscape:cy="40.334393"
     inkscape:current-layer="layer1"
     showgrid="true"
     inkscape:document-units="px"
     inkscape:grid-bbox="true"
     inkscape:window-width="1364"
     inkscape:window-height="658"
     inkscape:window-x="0"
     inkscape:window-y="24"
     inkscape:window-maximized="0" />
  <metadata
     id="metadata2990">
    <rdf:RDF>
      <cc:Work
         rdf:about="">
        <dc:format>image/svg+xml</dc:format>
        <dc:type
           rdf:resource="http://purl.org/dc/dcmitype/StillImage" />
        <dc:title />
      </cc:Work>
    </rdf:RDF>
  </metadata>
  <g
     id="layer1"
     inkscape:label="Layer 1"
     inkscape:groupmode="layer">
    <path
       style="fill:#505051;fill-opacity:1;fill-rule:evenodd;stroke:none;stroke-width:0;stroke-linecap:butt;stroke-linejoin:miter;stroke-miterlimit:4;stroke-opacity:1;stroke-dasharray:none"
       d="M 32 0 C 14.326888 4.7369516e-15 0 14.326888 0 32 C -9.4739031e-15 49.673112 14.326888 64 32 64 C 49.673112 64 64 49.673112 64 32 C 64 14.326888 49.673112 -8.8817842e-15 32 0 z M 21.15625 15.75 C 21.225577 15.736198 21.330547 15.749225 21.4375 15.75 C 22.660149 15.7589 24.605057 16.555439 26.375 17.75 L 26.75 17.96875 L 27.40625 17.8125 C 29.088632 17.419727 30.025072 17.341479 32.0625 17.34375 C 33.952762 17.34585 34.570131 17.381966 36.09375 17.6875 L 36.84375 17.84375 L 37.46875 17.4375 C 38.290291 16.920166 39.505883 16.331164 40.21875 16.09375 C 41.143339 15.785825 42.103229 15.667053 42.375 15.8125 C 42.509276 15.88436 42.809615 16.733713 42.96875 17.5625 C 43.152793 18.521012 43.092254 20.214174 42.84375 20.90625 C 42.82955 20.94581 42.970638 21.19 43.1875 21.4375 C 44.168837 22.557481 44.814453 23.85008 45.125 25.375 C 45.21173 25.800862 45.220343 26.199233 45.21875 27.4375 C 45.21765 28.28338 45.19874 29.26011 45.15625 29.625 C 45.082 30.262649 44.882156 31.443482 44.8125 31.625 C 44.78297 31.70196 45.037516 31.6875 46.8125 31.6875 C 48.987986 31.6875 50.052803 31.744231 51.78125 31.9375 C 52.84612 32.056571 54.473468 32.317218 54.53125 32.375 C 54.54756 32.39131 54.5506 32.43749 54.53125 32.46875 C 54.50964 32.50372 54.36118 32.487 54.125 32.4375 C 52.027783 31.997886 47.57343 31.694025 45.3125 31.84375 L 44.71875 31.90625 L 44.59375 32.25 C 44.52708 32.447415 44.485501 32.632785 44.5 32.65625 C 44.5145 32.67971 44.962463 32.72867 45.5 32.75 C 47.793251 32.84098 50.921781 33.244324 52.9375 33.71875 C 54.13207 33.999909 54.498431 34.110153 54.46875 34.1875 C 54.44771 34.24233 54.259836 34.22024 53.78125 34.09375 C 51.412134 33.467572 48.484591 33.054623 45.125 32.875 L 44.40625 32.8125 L 44.25 33.125 C 43.992202 33.659221 43.455805 34.387945 43 34.84375 C 41.719007 36.124743 39.808688 36.944565 37.0625 37.375 C 36.538221 37.45717 36.026249 37.531165 35.9375 37.53125 C 35.78821 37.53137 35.822026 37.538545 36.25 37.96875 C 36.753172 38.474545 37.050277 38.99861 37.28125 39.71875 C 37.411862 40.125979 37.424198 40.248657 37.46875 43.59375 C 37.5131 46.923363 37.53115 47.041918 37.65625 47.375 C 37.843083 47.872459 38.158509 48.268019 38.59375 48.5 C 38.98787 48.710064 39.15625 48.88114 39.15625 49.09375 C 39.15625 49.322326 38.939749 49.407404 38.40625 49.40625 C 37.036303 49.40325 35.903706 48.779934 35.53125 47.84375 C 35.395624 47.502848 35.410143 47.449659 35.375 44.65625 C 35.34357 42.157649 35.311905 41.758062 35.21875 41.46875 C 35.096905 41.090353 34.834712 40.625 34.75 40.625 C 34.66409 40.625 34.69488 48.654927 34.78125 49.0625 C 34.87766 49.517346 34.995046 49.746527 35.34375 50.0625 C 35.701161 50.386364 35.742623 50.615818 35.5 50.84375 C 35.272779 51.057213 34.939542 51.063701 34.375 50.875 C 33.508062 50.585226 32.998857 50.19428 32.65625 49.5625 L 32.4375 49.1875 L 32.40625 44.6875 C 32.38975 42.2125 32.37045 40.16625 32.34375 40.125 C 32.28194 40.02949 32.000717 40.03053 31.90625 40.125 C 31.85158 40.17967 31.8125 41.241407 31.8125 44.53125 C 31.8125 48.576768 31.822342 48.886065 31.71875 49.21875 C 31.583464 49.653423 31.308164 50.037074 30.96875 50.3125 C 30.257326 50.889802 29.001731 51.220481 28.6875 50.90625 C 28.553209 50.771959 28.546257 50.505907 28.65625 50.3125 C 28.69633 50.24202 28.854406 50.111022 29 50 C 29.145594 49.888979 29.306094 49.6945 29.375 49.5625 C 29.498219 49.326456 29.514657 49.230547 29.53125 44.9375 C 29.54196 42.167324 29.53671 40.59375 29.5 40.59375 C 29.4059 40.59375 29.169136 40.912668 29.03125 41.28125 C 28.908135 41.610346 28.906856 41.747729 28.875 44.5625 C 28.84227 47.454201 28.854984 47.501655 28.71875 47.84375 C 28.342411 48.788754 27.213257 49.403398 25.8125 49.40625 C 25.256627 49.40735 25.03125 49.313635 25.03125 49.09375 C 25.03125 48.871484 25.17757 48.750185 25.5625 48.5625 C 26.106026 48.297487 26.321925 48.08266 26.53125 47.65625 L 26.71875 47.28125 L 26.75 44.90625 C 26.77357 43.497829 26.78274 42.561874 26.75 42.5625 C 26.71989 42.5631 26.45325 42.60745 26.15625 42.65625 C 25.442639 42.7735 24.274419 42.776401 23.6875 42.65625 C 22.259632 42.364019 21.290843 41.599361 20.40625 40.09375 C 19.554675 38.644338 19.146608 38.222747 18.1875 37.71875 C 17.781335 37.505319 17.40625 37.187995 17.40625 37.03125 C 17.40625 36.756574 18.054431 36.580719 18.6875 36.6875 C 19.654215 36.850557 20.559961 37.513728 21.28125 38.59375 C 21.811808 39.38818 22.096911 39.678043 22.625 40.03125 C 23.678491 40.735868 24.994795 40.831071 26.40625 40.28125 L 26.875 40.09375 L 27.03125 39.5625 C 27.237805 38.914091 27.6669 38.261034 28.125 37.84375 L 28.46875 37.53125 L 27.90625 37.46875 C 24.093713 36.959296 21.508425 35.621183 20.0625 33.40625 C 19.905285 33.165419 19.761637 32.941162 19.75 32.90625 C 19.71333 32.796223 17.112963 32.973731 15.15625 33.21875 C 13.491351 33.42723 11.447735 33.814235 10.21875 34.15625 C 9.9060973 34.24326 9.803817 34.24631 9.78125 34.1875 C 9.75068 34.10782 10.105448 34.002847 11.3125 33.71875 C 13.295169 33.252103 16.366424 32.848733 18.65625 32.75 C 19.325775 32.72113 19.59375 32.678017 19.59375 32.625 C 19.59375 32.58461 19.520245 32.399489 19.4375 32.21875 L 19.28125 31.90625 L 18.875 31.84375 C 17.054023 31.671768 12.18561 32.00556 10.125 32.4375 C 9.8888213 32.48701 9.74036 32.50372 9.71875 32.46875 C 9.69943 32.43748 9.67121 32.39131 9.6875 32.375 C 9.74528 32.31722 11.403881 32.056571 12.46875 31.9375 C 14.177931 31.74641 15.260774 31.6875 17.3125 31.6875 L 19.21875 31.6875 L 19.15625 31.53125 C 19.042806 31.232861 18.794043 30.21404 18.6875 29.5625 C 18.548374 28.711702 18.558563 26.090782 18.6875 25.4375 C 18.956116 24.076467 19.753144 22.443061 20.5625 21.59375 L 20.71875 21.40625 L 20.59375 20.875 C 20.198521 19.511147 20.238834 17.961875 20.75 16.34375 C 20.877537 15.940024 20.948268 15.791407 21.15625 15.75 z M 26.84375 25.9375 C 26.155521 25.951826 25.592954 26.03398 25.25 26.125 C 24.546434 26.311729 23.995261 26.603498 23.46875 27.125 C 22.737999 27.848799 22.256855 28.675698 22.0625 29.5 C 21.94921 29.980489 21.950122 30.96588 22.0625 31.65625 C 22.45569 34.07188 23.992109 35.518692 26.84375 36.15625 C 27.708797 36.349654 28.734596 36.49447 29.875 36.5625 C 30.990161 36.62902 34.86258 36.5868 35.78125 36.5 C 38.299094 36.262115 39.888899 35.641069 40.8125 34.53125 C 41.402923 33.821784 41.771451 32.945374 41.9375 31.84375 C 42.051307 31.088711 42.05169 29.984292 41.9375 29.5 C 41.743846 28.678672 41.267802 27.862541 40.53125 27.125 C 39.410771 26.003012 38.130657 25.769203 34.65625 26.03125 C 33.027987 26.154057 31.049243 26.157028 29.28125 26.03125 C 28.369092 25.966355 27.531979 25.923174 26.84375 25.9375 z M 26.75 28.78125 C 26.840419 28.777881 26.94074 28.785383 27.03125 28.8125 C 27.764105 29.032069 28.256498 30.127599 28.09375 31.15625 C 28.01469 31.655937 27.882977 31.99199 27.59375 32.3125 C 27.16769 32.784644 26.698112 32.856314 26.21875 32.53125 C 25.693767 32.17525 25.355408 31.285411 25.4375 30.5 C 25.538057 29.537924 26.11707 28.804831 26.75 28.78125 z M 37.59375 28.78125 C 38.005059 28.783343 38.381364 29.066627 38.65625 29.625 C 38.919612 30.159965 38.972927 30.931446 38.78125 31.5625 C 38.488402 32.526641 37.701265 32.987412 37.03125 32.5625 C 36.018246 31.920072 35.909214 29.938047 36.84375 29.09375 C 37.082647 28.877921 37.346965 28.779994 37.59375 28.78125 z M 26.1875 29.40625 C 26.0875 29.40625 25.941667 29.46458 25.875 29.53125 C 25.604129 29.802121 25.825012 30.25 26.21875 30.25 C 26.364225 30.25 26.434231 30.218901 26.5 30.125 C 26.71361 29.820029 26.542058 29.40625 26.1875 29.40625 z M 37.125 29.46875 C 36.906319 29.46875 36.75 29.64784 36.75 29.875 C 36.75 30.008462 36.988385 30.25 37.125 30.25 C 37.1656 30.25 37.28805 30.193395 37.375 30.125 C 37.67428 29.889586 37.509665 29.46875 37.125 29.46875 z M 32.03125 32.90625 C 32.180178 32.90625 32.258945 32.955826 32.375 33.09375 C 32.46043 33.195281 32.53125 33.295143 32.53125 33.34375 C 32.53125 33.484251 32.387525 33.771719 32.28125 33.8125 C 32.16862 33.85572 31.891916 33.85704 31.78125 33.8125 C 31.69164 33.77645 31.53125 33.470945 31.53125 33.34375 C 31.53125 33.29514 31.602067 33.195281 31.6875 33.09375 C 31.803555 32.955827 31.882322 32.90625 32.03125 32.90625 z M 30.9375 34.53125 C 30.993117 34.546053 31.073771 34.623159 31.15625 34.75 C 31.375551 35.087257 31.667808 35.250266 32.03125 35.25 C 32.409974 35.2497 32.663363 35.085255 32.875 34.75 C 32.96044 34.614646 33.054277 34.518257 33.09375 34.53125 C 33.243192 34.58044 33.187104 34.807404 32.96875 35.0625 C 32.573741 35.523979 32.050625 35.640939 31.5625 35.40625 C 31.167188 35.216186 30.875 34.90164 30.875 34.65625 C 30.875 34.55136 30.881883 34.516447 30.9375 34.53125 z M 19.28125 37.15625 C 19.094865 37.17858 19.059783 37.309779 19.1875 37.4375 C 19.309611 37.559611 19.51673 37.556775 19.5625 37.4375 C 19.61433 37.302438 19.452743 37.135703 19.28125 37.15625 z M 20.0625 37.65625 C 20.006028 37.652892 19.949246 37.675754 19.90625 37.71875 C 19.82283 37.80217 19.81552 37.830324 19.90625 37.96875 C 20.017282 38.138206 20.288741 38.1746 20.34375 38.03125 C 20.410283 37.857872 20.231916 37.666324 20.0625 37.65625 z M 20.71875 38.5 C 20.625565 38.543992 20.557935 38.679767 20.59375 38.78125 C 20.701131 39.08551 21.048504 39.178518 21.125 38.9375 C 21.17261 38.78749 20.980137 38.5329 20.8125 38.5 C 20.778918 38.49341 20.749812 38.485336 20.71875 38.5 z M 21.5 39.46875 C 21.375585 39.495357 21.295281 39.62916 21.40625 39.84375 C 21.535907 40.094479 21.793646 40.173334 21.9375 40 C 22.00372 39.92021 21.98039 39.882035 21.90625 39.75 C 21.786819 39.53722 21.624415 39.442143 21.5 39.46875 z M 22.4375 40.40625 C 22.314493 40.44011 22.261184 40.533223 22.34375 40.6875 C 22.474804 40.932376 22.842886 41.013554 22.96875 40.8125 C 23.01911 40.73205 22.98781 40.682573 22.875 40.5625 C 22.742879 40.421864 22.560507 40.37239 22.4375 40.40625 z M 26.53125 40.53125 C 26.4515 40.53125 26.3521 40.55415 26.3125 40.59375 C 26.161013 40.745238 26.28168 41 26.5 41 C 26.56255 41 26.593276 40.96706 26.59375 40.90625 C 26.59423 40.8485 26.6051 40.7305 26.625 40.65625 C 26.65521 40.543511 26.652339 40.53125 26.53125 40.53125 z M 25.3125 40.8125 C 24.996597 40.8125 24.817959 41.036709 25 41.21875 C 25.105673 41.324424 25.515735 41.28077 25.59375 41.15625 C 25.67789 41.021968 25.514002 40.8125 25.3125 40.8125 z M 23.8125 40.84375 C 23.531705 40.86443 23.450533 40.994716 23.625 41.1875 C 23.756062 41.332322 24.123487 41.30837 24.21875 41.15625 C 24.327895 40.98196 24.106662 40.822082 23.8125 40.84375 z "
       id="path2993" />
    <rect
       style="opacity:0;fill:#673ab7;fill-opacity:1;stroke-width:0;stroke-miterlimit:4;stroke-dasharray:none"
       id="rect3862"
       width="28.90909"
       height="33.090908"
       x="70.181816"
       y="6.3636365" />
  </g>
  <g
     inkscape:groupmode="layer"
     id="layer3"
     inkscape:label="sombra"
     style="display:inline">
    <rect
       style="opacity:0;fill:#673ab7;fill-opacity:1;stroke-width:0;stroke-miterlimit:4;stroke-dasharray:none"
       id="rect3907"
       width="5.818182"
       height="1.6363636"
       x="48"
       y="46" />
  </g>
  <g
     inkscape:groupmode="layer"
     id="layer2"
     inkscape:label="octocat"
     style="display:inline" />
</svg>
