<?xml version="1.0" encoding="UTF-8" standalone="no"?>
<!-- Generator: Adobe Illustrator 16.0.0, SVG Export Plug-In . SVG Version: 6.00 Build 0)  -->

<svg
   xmlns:dc="http://purl.org/dc/elements/1.1/"
   xmlns:cc="http://creativecommons.org/ns#"
   xmlns:rdf="http://www.w3.org/1999/02/22-rdf-syntax-ns#"
   xmlns:svg="http://www.w3.org/2000/svg"
   xmlns="http://www.w3.org/2000/svg"
   xmlns:sodipodi="http://sodipodi.sourceforge.net/DTD/sodipodi-0.dtd"
   xmlns:inkscape="http://www.inkscape.org/namespaces/inkscape"
   version="1.1"
   id="Capa_1"
   x="0px"
   y="0px"
   width="454.309px"
   height="454.309px"
   viewBox="0 0 454.309 454.309"
   style="enable-background:new 0 0 454.309 454.309;"
   xml:space="preserve"
   inkscape:version="0.48.4 r9939"
   sodipodi:docname="thread2.svg"><metadata
     id="metadata3266"><rdf:RDF><cc:Work
         rdf:about=""><dc:format>image/svg+xml</dc:format><dc:type
           rdf:resource="http://purl.org/dc/dcmitype/StillImage" /><dc:title></dc:title></cc:Work></rdf:RDF></metadata><defs
     id="defs3264" /><sodipodi:namedview
     pagecolor="#ffffff"
     bordercolor="#666666"
     borderopacity="1"
     objecttolerance="10"
     gridtolerance="10"
     guidetolerance="10"
     inkscape:pageopacity="0"
     inkscape:pageshadow="2"
     inkscape:window-width="1366"
     inkscape:window-height="659"
     id="namedview3262"
     showgrid="false"
     inkscape:zoom="0.51947024"
     inkscape:cx="227.1545"
     inkscape:cy="227.1545"
     inkscape:window-x="0"
     inkscape:window-y="24"
     inkscape:window-maximized="1"
     inkscape:current-layer="Capa_1" /><g
     id="g3218"
     style="fill:#ffffff"><g
       id="g3220"
       style="fill:#ffffff"><path
         d="M395.117,163.065l-4.14-8.081l-3.054,8.548C339.718,298.56,219.74,392.819,152.509,436.985l-6.763,4.444l7.67,2.561    c6.007,2.004,12.162,3.735,18.278,5.13l1.639,0.385l1.406-0.93c15.561-10.255,31.204-21.428,46.781-33.462    c4.428-4.164,14.849-11.754,14.849-11.754l2.168-1.779c56.316-46.05,130.711-120.912,165.403-216.037l0.497-1.38l-0.514-1.365    C401.385,176.166,398.427,169.527,395.117,163.065z"
         id="path3222"
         style="fill:#ffffff" /><path
         d="M362.549,116.92l-4.585-4.859l-2.008,6.354c-48.622,153.22-192.637,256.748-252.31,294.146l-5.071,3.166l4.929,3.394    c6.061,4.156,12.233,7.951,18.338,11.249l2.01,1.082l1.939-1.206c60.749-38.07,206.706-142.978,250.234-294.856l0.553-1.908    l-1.226-1.565C371.349,126.726,367.041,121.672,362.549,116.92z"
         id="path3224"
         style="fill:#ffffff" /><path
         d="M415.775,276.896l0.484-5.782c0.537-6.111,0.781-11.666,0.781-16.996c0-8.303-0.536-16.626-1.671-25.467l-1.687-13.263    l-5.751,12.074C360.188,327.73,275.307,402.265,212.49,447.127l-9.77,6.997l14.128,0.185c15.276,0,30.703-1.791,45.847-5.334    l10.632-2.492l-7.365-3.655c5.811-4.833,11.288-9.529,16.635-14.238c5.221,2.429,10.511,4.736,15.845,6.969l1.611,0.666    l1.562-0.734c9.177-4.315,18.018-9.293,26.281-14.803l6.079-4.063l-6.736-2.821c-7.226-3.021-13.449-5.759-19.176-8.472    c5.174-5.029,10.227-10.067,15.063-15.056c8.328,3.807,17.172,7.465,26.329,10.899l2.284,0.842l1.775-1.663    c5.17-4.845,10.183-10.043,14.859-15.477l3.603-4.172l-5.105-2.04c-9.445-3.778-17.9-7.434-25.691-11.128    c4.396-4.901,8.9-10.107,13.649-15.773c8.255,3.835,17.116,7.57,26.377,11.097l2.989,1.142l1.728-2.709    c2.857-4.521,5.306-8.684,7.474-12.731l2.023-3.787l-3.938-1.687c-8.513-3.635-15.75-6.938-22.386-10.22    c4.047-5.138,8.103-10.495,12.295-16.237c5.582,2.721,11.609,5.466,18.354,8.355l3.819,1.635l1.419-3.896    c2.528-6.94,4.761-14.459,6.644-22.365l0.746-3.11l-4.717-2.216c-2.821-1.326-5.635-2.652-8.416-4.02    c3.419-5.466,6.809-11.168,10.271-17.279L415.775,276.896z"
         id="path3226"
         style="fill:#ffffff" /><path
         d="M329.651,88.74l-4.3-2.93l-1.64,4.938c-50.737,152.759-194.82,254.928-254.411,291.769l-4.02,2.477l3.174,3.494    c3.482,3.848,7.281,7.683,11.601,11.729l2.182,2.049l2.553-1.575c62.534-38.407,212.652-144.616,255.876-300.735l0.705-2.537    l-2.084-1.619C336.144,93.362,332.949,90.986,329.651,88.74z"
         id="path3228"
         style="fill:#ffffff" /><path
         d="M433.203,0.783c-3.867-1.877-8.58-0.261-10.476,3.61c-0.817,1.649-20.546,40.203-79.551,26.211    C247.431,7.936,174.255,58.441,174.255,58.441l3.444,4.983c5.747,8.325,11.612,16.444,17.457,24.203    c-3.192,3.619-5.336,6.117-7.213,8.31c-2.128,2.484-3.925,4.576-6.578,7.514c-8.762-11.699-17.468-24.057-25.904-36.806    l-1.691-2.546l-2.863,0.998c-3.947,1.38-7.858,2.837-11.692,4.446l-4.232,1.779l2.427,3.901    c17.679,28.458,47.167,71.436,87.873,115.747c-4.102,5.29-8.396,10.604-13.019,16.069c-45.955-49.647-77.962-98.322-93.104-123.23    l-2.027-3.342l-3.351,2.018c-6.029,3.633-11.978,7.667-17.692,11.99l-2.795,2.122l1.797,3.014    c12.481,20.961,46.708,75.085,97.743,129.822c-4.631,5.13-9.319,10.151-13.988,15.004    c-49.079-52.431-82.555-103.889-98.278-130.183l-2.599-4.354l-3.559,3.603c-4.716,4.777-9.301,9.929-13.625,15.316l-1.707,2.124    l1.384,2.338c12.369,20.885,46.316,74.787,97.291,129.678c-4.785,4.568-9.752,9.153-15.042,13.906    c-43.326-46.667-74.306-92.151-92.77-122.333l-3.462-5.659l-3.296,5.75c-3.956,6.893-7.448,13.862-10.385,20.707l-0.85,1.986    l1.202,1.795c9.554,13.906,19.516,27.467,29.659,40.333c-5.08,4.124-10.399,8.302-16.1,12.634    c-6.029-7.667-12.09-15.678-18.043-23.867l-5.085-7.015l-1.905,8.458c-3.332,14.695-5.018,29.652-5.018,44.464    c0,5.351,0.249,10.933,0.777,17.072l0.563,6.708l5.558-3.787c18.127-12.358,35.836-25.583,52.706-39.32    c4.21,4.869,8.687,9.898,13.573,15.264c-20.975,17.052-43.042,33.142-65.666,47.877l-2.338,1.519l0.667,2.705    c1.83,7.446,4.09,14.804,6.734,21.897l1.695,4.536l4.09-2.597c17.342-11.001,43.859-28.942,73.049-52.702    c4.366,5.046,8.9,10.143,13.573,15.252c-31.605,25.696-60.322,44.787-79.087,56.409l-3.154,1.955l1.79,3.263    c2.981,5.438,6.226,10.756,9.634,15.801l2.112,3.13l3.208-1.996c59.694-36.988,203.623-139.129,250.587-288.186l1.021-3.226    l-3.038-1.489c-3.13-1.517-6.287-2.981-9.489-4.354l-3.727-1.587l-1.471,3.757c-13.525,34.498-32.545,68.477-56.541,101.057    c-4.869-5.396-9.462-10.631-13.708-15.623c21.594-29.693,38.814-60.48,51.233-91.568l1.643-4.118l-4.279-1.134    c-3.619-0.966-7.254-1.847-10.948-2.606l-3.018-0.621l-1.318,2.783c-12.392,26.25-27.85,52.002-45.985,76.626    c-4.879-5.428-9.472-10.664-13.695-15.631c14.577-20.041,27.23-40.647,37.642-61.293l2.707-5.366l-6.003-0.322    c-3.132-0.16-6.306-0.214-9.476-0.23c25.08-10.333,67.375-20.898,121.303-8.125c71.641,16.974,97.056-34.155,97.316-34.676    C438.737,7.315,437.095,2.66,433.203,0.783z"
         id="path3230"
         style="fill:#ffffff" /></g></g><g
     id="g3232" /><g
     id="g3234" /><g
     id="g3236" /><g
     id="g3238" /><g
     id="g3240" /><g
     id="g3242" /><g
     id="g3244" /><g
     id="g3246" /><g
     id="g3248" /><g
     id="g3250" /><g
     id="g3252" /><g
     id="g3254" /><g
     id="g3256" /><g
     id="g3258" /><g
     id="g3260" /></svg>