<?xml version="1.0" encoding="UTF-8" standalone="no"?>
<!-- Created with Inkscape (http://www.inkscape.org/) -->

<svg
   xmlns:dc="http://purl.org/dc/elements/1.1/"
   xmlns:cc="http://creativecommons.org/ns#"
   xmlns:rdf="http://www.w3.org/1999/02/22-rdf-syntax-ns#"
   xmlns:svg="http://www.w3.org/2000/svg"
   xmlns="http://www.w3.org/2000/svg"
   xmlns:xlink="http://www.w3.org/1999/xlink"
   xmlns:sodipodi="http://sodipodi.sourceforge.net/DTD/sodipodi-0.dtd"
   xmlns:inkscape="http://www.inkscape.org/namespaces/inkscape"
   width="768"
   height="256"
   id="svg2"
   version="1.1"
   inkscape:version="0.48.4 r9939"
   sodipodi:docname="logo.svg">
  <defs
     id="defs4">
    <linearGradient
       id="linearGradient4631">
      <stop
         style="stop-color:#99ffad;stop-opacity:0;"
         offset="0"
         id="stop4633" />
      <stop
         id="stop4639"
         offset="0.46742612"
         style="stop-color:#99ffad;stop-opacity:0.18439716;" />
      <stop
         style="stop-color:#99ffad;stop-opacity:0;"
         offset="1"
         id="stop4635" />
    </linearGradient>
    <linearGradient
       inkscape:collect="always"
       xlink:href="#linearGradient4631"
       id="linearGradient4637"
       x1="-573.3725"
       y1="-96.539612"
       x2="-94.304718"
       y2="335.22272"
       gradientUnits="userSpaceOnUse" />
  </defs>
  <sodipodi:namedview
     id="base"
     pagecolor="#ffffff"
     bordercolor="#666666"
     borderopacity="1.0"
     inkscape:pageopacity="0.0"
     inkscape:pageshadow="2"
     inkscape:zoom="0.7"
     inkscape:cx="343.84138"
     inkscape:cy="203.85055"
     inkscape:document-units="px"
     inkscape:current-layer="layer1"
     showgrid="false"
     inkscape:window-width="1364"
     inkscape:window-height="658"
     inkscape:window-x="0"
     inkscape:window-y="24"
     inkscape:window-maximized="0"
     showguides="true"
     inkscape:guide-bbox="true" />
  <metadata
     id="metadata7">
    <rdf:RDF>
      <cc:Work
         rdf:about="">
        <dc:format>image/svg+xml</dc:format>
        <dc:type
           rdf:resource="http://purl.org/dc/dcmitype/StillImage" />
      </cc:Work>
    </rdf:RDF>
  </metadata>
  <g
     inkscape:groupmode="layer"
     id="layer3"
     inkscape:label="circle" />
  <g
     inkscape:label="Layer 1"
     inkscape:groupmode="layer"
     id="layer1"
     transform="translate(0,-796.36218)">
    <path
       style="fill:none;stroke:#000000;stroke-width:0.92429256;stroke-linecap:butt;stroke-linejoin:miter;stroke-miterlimit:5;stroke-opacity:0;stroke-dasharray:none"
       d="m 8.4621463,824.58188 42.3140247,-14.75312 115.690909,0 0,258.00564 -7.28865,16.4269 0,-268.71667 -107.887105,0 -28.05174,9.78047 z"
       id="path4516"
       inkscape:connector-curvature="0" />
    <path
       style="fill:#000000"
       d=""
       id="path5589"
       inkscape:connector-curvature="0" />
    <text
       xml:space="preserve"
       style="font-size:114.6986084px;font-style:normal;font-variant:normal;font-weight:normal;font-stretch:normal;line-height:125%;letter-spacing:0px;word-spacing:0px;fill:#99ffad;fill-opacity:0.44166667;stroke:none;font-family:Droid Sans;-inkscape-font-specification:Droid Sans"
       x="255.06326"
       y="988.78131"
       id="text5800"
       sodipodi:linespacing="125%"><tspan
         sodipodi:role="line"
         id="tspan5802"
         x="255.06326"
         y="988.78131">Estudia.la</tspan></text>
    <path
       style="color:#000000;fill:#99ffad;fill-opacity:0.44166667;fill-rule:nonzero;stroke:none;stroke-width:4;marker:none;visibility:visible;display:inline;overflow:visible;enable-background:accumulate"
       d="m 23.782877,1011.8088 -5.877172,25.1799 196.462775,0 5.87717,-25.1799 -196.462773,0 z m 6.666916,1.6713 187.500097,0 -0.82648,2.0938 -187.481723,0 0.808106,-2.0938 z m -0.844846,2.6998 187.481743,0 -0.80813,2.0937 -187.500089,0 0.826476,-2.0937 z m -0.238759,2.7549 187.500102,0 -0.80812,2.1121 -187.500089,0 0.808107,-2.1121 z m -0.844836,2.6998 187.500078,0 -0.8081,2.1121 -187.500094,0 0.808116,-2.1121 z m -0.569357,2.8836 187.500095,0 -0.80811,2.112 -187.500091,0 0.808106,-2.112 z m -0.844846,2.8283 187.481731,0 -0.80811,2.0938 -187.481727,0 0.808106,-2.0938 z m -0.624446,2.81 187.481717,0 -0.80809,2.1122 -187.481733,0 0.808106,-2.1122 z m -0.863206,2.7182 187.500093,0 -0.80811,2.0937 -187.500099,0 0.808116,-2.0937 z"
       id="rect5804-3"
       inkscape:connector-curvature="0" />
    <path
       inkscape:connector-curvature="0"
       style="color:#000000;fill:#99ffad;fill-opacity:0.44166667;fill-rule:nonzero;stroke:none;stroke-width:4;marker:none;visibility:visible;display:inline;overflow:visible;enable-background:accumulate"
       d="m 208.77213,1010.7501 5.87716,-25.18 -196.462799,0 -5.87717,25.18 196.462809,0 z m -6.66692,-1.6713 -187.500093,0 0.826449,-2.0938 187.481724,0 -0.80808,2.0938 z m 0.84483,-2.6999 -187.481745,0 0.808117,-2.0937 187.500118,0 -0.82649,2.0937 z m 0.23878,-2.7548 -187.500126,0 0.808107,-2.1122 187.500139,0 -0.80812,2.1122 z m 0.84484,-2.6999 -187.500121,0 0.808106,-2.1122 187.500125,0 -0.80811,2.1122 z m 0.56932,-2.8835 -187.500065,0 0.808115,-2.1121 187.50006,0 -0.80811,2.1121 z m 0.84484,-2.8283 -187.481727,0 0.808116,-2.0938 187.481721,0 -0.80811,2.0938 z m 0.62445,-2.8101 -187.481721,0 0.808107,-2.1121 187.481734,0 -0.80812,2.1121 z m 0.86324,-2.7183 -187.500124,0 0.808115,-2.0937 187.500129,0 -0.80812,2.0937 z"
       id="rect5804-3-8" />
    <path
       inkscape:connector-curvature="0"
       style="color:#000000;fill:#99ffad;fill-opacity:0.44166667;fill-rule:nonzero;stroke:none;stroke-width:4;marker:none;visibility:visible;display:inline;overflow:visible;enable-background:accumulate"
       d="m 35.537217,958.84688 -5.87717,25.18002 196.462783,0 5.87717,-25.18002 -196.462783,0 z m 6.666916,1.67132 187.500087,0 -0.82647,2.09374 -187.481723,0 0.808106,-2.09374 z m -0.844846,2.69982 187.481733,0 -0.80812,2.09375 -187.500089,0 0.826476,-2.09375 z m -0.238758,2.75493 187.500091,0 -0.80811,2.11211 -187.500087,0 0.808106,-2.11211 z m -0.844837,2.69983 187.500088,0 -0.80811,2.1121 -187.500092,0 0.808114,-2.1121 z m -0.569357,2.88347 187.500105,0 -0.80812,2.11212 -187.500091,0 0.808106,-2.11212 z m -0.844845,2.82839 187.48173,0 -0.8081,2.09375 -187.481736,0 0.808106,-2.09375 z m -0.624447,2.81004 187.481737,0 -0.80812,2.1121 -187.481723,0 0.808106,-2.1121 z m -0.863206,2.71817 187.500093,0 -0.80811,2.09375 -187.500098,0 0.808115,-2.09375 z"
       id="rect5804-3-3" />
    <path
       inkscape:connector-curvature="0"
       style="color:#000000;fill:#99ffad;fill-opacity:0.44166667;fill-rule:nonzero;stroke:none;stroke-width:4;marker:none;visibility:visible;display:inline;overflow:visible;enable-background:accumulate"
       d="m 219.82981,956.38623 5.87716,-25.18001 -196.462778,0 -5.877171,25.18001 196.462789,0 z m -6.66692,-1.67132 -187.5001,0 0.826476,-2.09375 187.481724,0 -0.8081,2.09375 z m 0.84484,-2.69983 -187.481724,0 0.808106,-2.09374 187.500098,0 -0.82648,2.09374 z m 0.23876,-2.75492 -187.500094,0 0.808114,-2.1121 187.50009,0 -0.80811,2.1121 z m 0.84485,-2.69982 -187.5001,0 0.808107,-2.11212 187.500103,0 -0.80811,2.11212 z m 0.56934,-2.88349 -187.500092,0 0.808116,-2.11211 187.500096,0 -0.80812,2.11211 z m 0.84485,-2.82839 -187.481726,0 0.808106,-2.09375 187.48172,0 -0.8081,2.09375 z m 0.62444,-2.81002 -187.48172,0 0.808106,-2.11211 187.481734,0 -0.80812,2.11211 z m 0.86321,-2.7182 -187.500085,0 0.808107,-2.09374 187.500088,0 -0.80811,2.09374 z"
       id="rect5804-3-3-1" />
    <path
       id="path6002-0"
       style="color:#000000;fill:#99ffad;fill-opacity:0.44313725;fill-rule:nonzero;stroke:none;stroke-width:4;marker:none;visibility:visible;display:inline;overflow:visible;enable-background:accumulate"
       d="m 212.89087,888.38059 c 0,22.31592 -14.93528,40.40654 -33.35888,40.40654 -18.4236,0 -33.35887,-18.09062 -33.35887,-40.40654 0,-22.3159 14.93527,-40.40653 33.35887,-40.40653 18.4236,0 33.35888,18.09063 33.35888,40.40653 z m -25.84138,0.9397 c 0,22.31591 -14.93528,40.40653 -33.35888,40.40653 -18.4236,0 -33.35888,-18.09062 -33.35888,-40.40653 0,-22.31591 14.93528,-40.40653 33.35888,-40.40653 18.4236,0 33.35888,18.09062 33.35888,40.40653 z"
       inkscape:connector-curvature="0" />
    <path
       style="fill:#99ffad;fill-opacity:0.44313725;stroke:none"
       d="m 164.497,846.09468 c 0,0 33.82873,-53.56213 59.20028,-40.40651 25.37154,13.1556 -59.20028,40.40651 -59.20028,40.40651 z"
       id="path6022"
       inkscape:connector-curvature="0" />
    <path
       style="fill:none;stroke:none"
       d="m 172.95419,839.98673 c 0,0 33.06718,-31.3372 47.55416,-27.45541 14.487,3.88178 -29.70011,9.60137 -47.55416,27.45541 z"
       id="path6050"
       inkscape:connector-curvature="0" />
  </g>
</svg>
