<?xml version="1.0" encoding="UTF-8" standalone="no"?>
<!-- Generator: Adobe Illustrator 16.0.0, SVG Export Plug-In . SVG Version: 6.00 Build 0)  -->

<svg
   xmlns:dc="http://purl.org/dc/elements/1.1/"
   xmlns:cc="http://creativecommons.org/ns#"
   xmlns:rdf="http://www.w3.org/1999/02/22-rdf-syntax-ns#"
   xmlns:svg="http://www.w3.org/2000/svg"
   xmlns="http://www.w3.org/2000/svg"
   xmlns:sodipodi="http://sodipodi.sourceforge.net/DTD/sodipodi-0.dtd"
   xmlns:inkscape="http://www.inkscape.org/namespaces/inkscape"
   version="1.1"
   id="Capa_1"
   x="0px"
   y="0px"
   width="93.558px"
   height="93.558px"
   viewBox="0 0 93.558 93.558"
   style="enable-background:new 0 0 93.558 93.558;"
   xml:space="preserve"
   inkscape:version="0.48.4 r9939"
   sodipodi:docname="pi2.svg"><metadata
     id="metadata3107"><rdf:RDF><cc:Work
         rdf:about=""><dc:format>image/svg+xml</dc:format><dc:type
           rdf:resource="http://purl.org/dc/dcmitype/StillImage" /><dc:title></dc:title></cc:Work></rdf:RDF></metadata><defs
     id="defs3105" /><sodipodi:namedview
     pagecolor="#ffffff"
     bordercolor="#666666"
     borderopacity="1"
     objecttolerance="10"
     gridtolerance="10"
     guidetolerance="10"
     inkscape:pageopacity="0"
     inkscape:pageshadow="2"
     inkscape:window-width="1366"
     inkscape:window-height="659"
     id="namedview3103"
     showgrid="false"
     inkscape:zoom="5.0770646"
     inkscape:cx="46.778999"
     inkscape:cy="46.778999"
     inkscape:window-x="0"
     inkscape:window-y="24"
     inkscape:window-maximized="1"
     inkscape:current-layer="Capa_1" /><g
     id="g3067"
     style="fill:#ffffff"><g
       id="g3069"
       style="fill:#ffffff"><path
         d="M72.766,74.275c-13.366-10.451-3.933-53.438-3.933-53.438s14.631,0,16.336,0s8.389-1.072,8.389-9.076    c0-9.846-8.168-9.241-8.168-9.241s-44.774,0-60.147,0c-9.873,0-18.784,11.304-23.899,19.389c-2.723,4.318-1.183,5.528,3.493,3.493    c16.392-7.178,21.012-4.593,21.012-4.593c1.155,5.528,1.54,30.473-2.667,40.318c-4.263,9.269-12.128,21.012-0.578,27.915    c9.021,5.115,18.481-5.391,17.546-23.268c-0.44-9.461-1.183-44.938-1.183-44.938h15.072c-0.469,5.528-3.025,33.745-0.357,50.467    c2.777,27.915,33.112,22.497,38.777,6.685c1.402-4.373,1.073-7.729,0.027-10.26c-1.926-4.702-5.144-4.949-4.785-2.75    c0.221,1.402,0.083,2.777-0.138,4.016C86.902,72.817,79.092,78.811,72.766,74.275z"
         id="path3071"
         style="fill:#ffffff" /></g></g><g
     id="g3073" /><g
     id="g3075" /><g
     id="g3077" /><g
     id="g3079" /><g
     id="g3081" /><g
     id="g3083" /><g
     id="g3085" /><g
     id="g3087" /><g
     id="g3089" /><g
     id="g3091" /><g
     id="g3093" /><g
     id="g3095" /><g
     id="g3097" /><g
     id="g3099" /><g
     id="g3101" /></svg>